<?xml version="1.0" standalone="no"?>
<!DOCTYPE svg PUBLIC "-//W3C//DTD SVG 20010904//EN"
 "http://www.w3.org/TR/2001/REC-SVG-20010904/DTD/svg10.dtd">
<svg version="1.0" xmlns="http://www.w3.org/2000/svg"
 width="512.000000pt" height="512.000000pt" viewBox="0 0 512.000000 512.000000"
 preserveAspectRatio="xMidYMid meet">

<g transform="translate(0.000000,512.000000) scale(0.100000,-0.100000)"
fill="#000000" stroke="none">
<path d="M2905 4535 l-25 -24 0 -218 c0 -254 -11 -320 -69 -438 -45 -89 -105
-163 -174 -213 l-46 -32 -40 57 c-130 191 -343 311 -580 330 -121 9 -117 15
-169 -292 l-42 -250 -235 -604 c-129 -332 -248 -626 -263 -654 -36 -66 -125
-156 -193 -194 -30 -17 -231 -106 -448 -199 -434 -186 -458 -200 -508 -302
-24 -48 -28 -69 -28 -137 0 -123 33 -170 295 -435 178 -179 395 -294 658 -347
118 -24 411 -24 572 0 488 75 915 275 1280 601 111 99 220 221 340 381 136
181 245 302 372 410 139 119 189 153 733 495 248 156 471 300 497 320 243 191
276 541 74 777 -20 22 -92 83 -161 134 -122 91 -127 97 -162 168 -74 154 -328
360 -611 497 -275 133 -546 193 -870 194 -170 0 -173 0 -197 -25z m450 -150
c156 -23 365 -76 365 -93 0 -4 -17 -23 -37 -42 -96 -93 -176 -228 -213 -362
-12 -42 -24 -131 -30 -208 -15 -223 -64 -340 -208 -495 -82 -89 -134 -166
-183 -270 -66 -142 -81 -219 -88 -477 l-6 -227 -31 -33 c-17 -18 -78 -91 -135
-163 -167 -211 -394 -425 -428 -404 -9 5 -59 40 -111 79 -216 158 -495 295
-742 366 -51 14 -98 29 -104 33 -7 4 1 31 24 79 l34 72 157 0 156 0 13 -30
c34 -76 122 -129 215 -130 69 0 120 19 165 63 119 114 97 300 -45 384 -40 24
-59 28 -119 28 l-71 0 -93 133 c-51 73 -91 135 -89 136 2 2 80 11 172 20 l168
15 57 -57 c59 -60 106 -82 174 -82 82 0 174 57 216 135 23 42 23 169 -1 212
-55 103 -184 157 -286 122 -33 -12 -34 -11 -122 77 l-90 89 178 6 c205 7 288
25 413 90 181 94 321 267 381 469 18 63 22 108 26 278 l5 202 107 0 c58 0 151
-7 206 -15z m638 -213 c195 -105 392 -268 441 -365 75 -150 52 -335 -59 -464
-20 -23 -259 -203 -532 -400 -273 -197 -548 -402 -611 -457 l-115 -98 6 128
c9 206 70 373 182 505 30 35 80 93 111 129 63 74 135 213 159 310 10 36 21
121 25 191 5 69 14 147 21 175 16 65 59 161 100 221 36 52 157 173 174 173 5
0 49 -22 98 -48z m-1859 -373 c87 -32 200 -113 256 -182 27 -34 46 -65 42 -69
-25 -25 -492 -41 -492 -17 0 14 38 243 46 278 5 22 9 23 48 18 24 -4 69 -16
100 -28z m2586 -285 c95 -75 148 -173 152 -286 l3 -60 -55 -52 c-33 -30 -258
-179 -551 -363 -551 -348 -654 -421 -815 -579 -121 -119 -161 -165 -280 -324
-130 -174 -198 -250 -344 -384 -307 -281 -735 -488 -1157 -560 -305 -52 -538
-44 -773 26 l-75 23 210 6 c149 4 247 12 338 28 634 110 1154 425 1569 951
142 180 252 297 389 414 58 50 329 252 601 448 272 197 514 377 538 400 84 85
141 190 162 303 7 38 16 61 23 58 5 -4 35 -26 65 -49z m-2366 -485 c58 -27 55
-115 -5 -139 -63 -26 -125 36 -100 99 19 44 60 60 105 40z m-320 -640 c58 -27
55 -115 -5 -139 -63 -26 -125 36 -100 99 19 44 60 60 105 40z m-665 -464 c274
-69 559 -201 784 -363 42 -30 77 -58 77 -61 0 -4 -39 -30 -87 -58 -252 -149
-548 -253 -853 -299 -175 -27 -466 -24 -634 5 -155 27 -321 74 -356 99 -36 28
-64 101 -56 147 14 75 41 91 451 265 416 177 471 204 530 255 22 19 41 34 43
35 2 0 47 -11 101 -25z"/>
</g>
</svg>
